<?xml version="1.0" encoding="utf-8"?>
<!-- Generator: Adobe Illustrator 16.0.4, SVG Export Plug-In . SVG Version: 6.00 Build 0)  -->
<!DOCTYPE svg PUBLIC "-//W3C//DTD SVG 1.1//EN" "http://www.w3.org/Graphics/SVG/1.1/DTD/svg11.dtd">
<svg version="1.1" id="Layer_1" xmlns="http://www.w3.org/2000/svg" xmlns:xlink="http://www.w3.org/1999/xlink" x="0px" y="0px"
	 width="248.987px" height="270.294px" viewBox="0 0 248.987 270.294" enable-background="new 0 0 248.987 270.294"
	 xml:space="preserve">
<circle fill="#414042" stroke="#58595B" stroke-miterlimit="10" cx="178.072" cy="110.749" r="10.254"/>
<g>
	<g>
		<path fill="#C49A6C" d="M117.366,203.603c0,0.029-0.045,0.311-0.078,0.96c-0.028,0.641-0.07,1.599,0.019,2.809
			c0.087,1.207,0.267,2.673,0.716,4.274c0.463,1.589,1.222,3.316,2.506,4.818c1.26,1.496,3.155,2.732,5.361,3.269
			c2.12,0.492,4.635-0.01,6.809-1.352c2.196-1.33,4.111-3.36,5.617-5.696c1.51-2.343,2.641-5.001,3.332-7.774
			c0.667-2.775,0.939-5.666,0.672-8.476c-0.074-0.78-0.066-1.457-0.104-2.184c0-0.362-0.057-0.705-0.011-1.08l0.122-1.114
			l0.131-1.103l0.294-1.051l0.294-1.041l0.453-0.974c1.204-2.595,3.25-4.585,5.444-5.903c2.205-1.329,4.55-2.076,6.751-2.407
			c0.551-0.077,1.098-0.107,1.628-0.159c0.535,0.018,1.058-0.019,1.565,0.044c1.014,0.065,1.991,0.406,2.739,0.884
			c1.56,0.996,2.456,2.346,3.096,3.452c0.62,1.132,0.97,2.084,1.186,2.737c0.214,0.655,0.29,1.014,0.29,1.014
			s-0.088-0.357-0.32-1.004c-0.234-0.644-0.613-1.583-1.262-2.686c-0.659-1.074-1.607-2.385-3.114-3.282
			c-1.521-0.935-3.612-0.932-5.737-0.561c-2.134,0.386-4.395,1.187-6.471,2.528c-2.07,1.331-3.931,3.272-4.974,5.714
			c-1.085,2.453-1.198,5.195-0.848,8.055c0.368,2.934,0.177,5.973-0.438,8.916c-0.639,2.941-1.744,5.788-3.286,8.35
			c-1.543,2.553-3.543,4.843-6.016,6.45c-2.451,1.613-5.482,2.407-8.324,1.837c-2.711-0.573-5.047-2-6.68-3.81
			c-1.639-1.805-2.591-3.841-3.18-5.655c-0.574-1.828-0.823-3.465-0.961-4.812c-0.14-1.348-0.127-2.413-0.117-3.144
			c0.016-0.726,0.066-1.171,0.061-1.143L117.366,203.603z"/>
	</g>
	<path fill="#6D6E71" d="M146.558,108.678c0,0,32.301-1.993,27.312,13.897c-4.988,15.893-18.82,4.048-22.566-4.219
		C147.556,110.09,146.558,108.678,146.558,108.678z"/>
	<path fill="#BCBEC0" d="M131.091,173.371c-5.51,13.476-1.307,31.728-24.816,37.373l-3.645,1.01
		c-13.475-5.511-34.204-13.797-29.557-31.83c4.647-18.031,28.381-33.83,28.309-40.242c-0.072-6.411,20.898-19.932,34.373-14.422l0,0
		c13.475,5.51,15.01,13.582,9.5,27.057L131.091,173.371z"/>
	<path fill="#BCBEC0" d="M73.783,178.788c0,0-2.155,7.298-6.589,6.185c-4.434-1.114-5.685,3.649-5.685,3.649
		s12.577,2.405,15.96,6.525c3.382,4.12,4.106-10.043,4.106-10.043L73.783,178.788z"/>
	<path fill="#BCBEC0" d="M105.915,185.271c0,0-20.943,1.136-19.994,22.541c-0.588,4.071-4.343,5.77-5.257,6.475
		c-0.912,0.704-6.073,4.521-2.454,6.001c3.62,1.479,7.021-3.596,10.062-3.429c3.043,0.164,6.102-0.732,18.002-6.114
		C118.179,205.363,105.915,185.271,105.915,185.271z"/>
	<path fill="#DDC8B1" d="M62.596,185.88c0,0-10.845-3.895-10.97,0.365c-0.671,2.958-0.671,2.958-0.671,2.958
		s2.507-3.286,9.941,0.832C64.466,189.291,62.596,185.88,62.596,185.88z"/>
	<path fill="#A7A9AC" d="M110.771,129.503c0,0-11.301,0.321-13.729-2.289s-4.023-0.027-5.324,0.519
		c-1.301,0.545,1.113,3.149,1.113,3.149s13.16,4.204,7.963,10.876C95.595,148.429,110.771,129.503,110.771,129.503z"/>
	<path fill="#D1D3D4" d="M128.96,146.042c0,0-8.805-6.144-16.148-2.68c-7.344,3.463-1.814,4.436-1.814,4.436
		s6.775-1.753,7.904,3.231c1.131,4.984,1.006,9.244,6.818,12.16c5.814,2.917,11.73,2.946,14.291,1.955
		c2.561-0.992,6.967-7.812,5.244-12.828C143.532,147.302,128.96,146.042,128.96,146.042z"/>
	<path fill="#DDC8B1" d="M109.065,146.077c0,0-6.756-0.237-6.594,3.719c0.164,3.956,2.957,5.175,2.957,5.175
		s-1.58-2.573,1.389-3.398c2.975-0.823,4.18-3.774,4.18-3.774L109.065,146.077z"/>
	<path fill="#DDC8B1" d="M79.974,215.615c0,0-8.345-0.293-8.145,4.594c0.201,4.886,3.652,6.391,3.652,6.391
		s-1.952-3.179,1.715-4.197c3.674-1.017,5.163-4.661,5.163-4.661L79.974,215.615z"/>
	<path fill="#DDC8B1" d="M93.45,126.333c0,0-6.756-0.238-6.593,3.717s2.958,5.176,2.958,5.176s-1.581-2.574,1.389-3.398
		c2.971-0.823,4.178-3.774,4.178-3.774L93.45,126.333z"/>
	<path fill="#BCBEC0" d="M146.485,139.722c0,0,13.902-19.304-2.889-35.12c-6.508-7.24-8.727-5.287-15.25-13.757
		c-6.523-8.469-11.375,8.692-11.576,10.03c-0.873,5.792-4.139,11.612,0.008,26.341C117.853,131.032,146.485,139.722,146.485,139.722
		z"/>
	<path fill="#414042" d="M121.952,87.139c0,0-1.758,4.039-2.127,5.201s2.938,2.818,5.26,2.15
		C127.407,93.824,124.917,87.533,121.952,87.139z"/>
	<path fill="#414042" d="M147.354,115.292c-1.199,0.742-3.002,0.001-4.027-1.655c-1.023-1.655,0.318-4.341,0.318-4.341
		s3.002-0.002,4.027,1.653C148.698,112.605,148.556,114.55,147.354,115.292z"/>
	<circle fill="#E6E7E8" cx="146.799" cy="113.014" r="0.493"/>
	<path fill="#414042" d="M150.862,115.932c0,0,31.034,9.172,20.91,22.4c-10.121,13.228-19.066-2.632-19.76-11.683
		C151.317,117.6,150.862,115.932,150.862,115.932z"/>
	<path fill="#BCBEC0" d="M171.778,138.338c10.065-13.271-20.912-22.401-20.912-22.401s0.232,0.853,0.619,4.648
		C151.485,120.585,178.282,125.267,171.778,138.338z"/>
	<g>
		<path fill="#6D6E71" d="M155.155,152.205c-0.344,1.783-2.184,2.933-4.092,2.504c-18.355-4.711-34.061-12.449-48.98-24.134
			c-1.504-1.251-1.713-3.41-0.51-4.77l0,0c1.203-1.359,3.299-1.463,4.715-0.282c14.078,11.024,28.898,18.327,46.219,22.771
			C154.304,148.699,155.499,150.422,155.155,152.205L155.155,152.205z"/>
	</g>
	<g>
		<path fill="#808285" d="M154.11,154.76c-0.344,1.783-2.184,2.933-4.092,2.503c-18.355-4.71-34.061-12.448-48.98-24.133
			c-1.504-1.252-1.713-3.411-0.51-4.77l0,0c1.203-1.359,3.299-1.464,4.715-0.283c14.078,11.024,28.898,18.328,46.219,22.771
			C153.261,151.254,154.454,152.978,154.11,154.76L154.11,154.76z"/>
	</g>
	<g>
		<path fill="#414042" d="M86.783,205.665c0,0-0.08-0.495-0.178-1.36c-0.044-0.434-0.123-0.953-0.092-1.577
			c0.031-0.614-0.054-1.348,0.124-2.093c0.13-0.756,0.237-1.59,0.538-2.43c0.146-0.419,0.228-0.88,0.439-1.3
			c0.184-0.432,0.415-0.854,0.627-1.295c0.226-0.433,0.529-0.83,0.798-1.255c0.262-0.434,0.585-0.826,0.924-1.211
			c0.634-0.813,1.413-1.504,2.18-2.208c0.84-0.608,1.676-1.219,2.568-1.698c0.433-0.266,0.872-0.502,1.323-0.704
			c0.447-0.208,0.88-0.435,1.32-0.618c0.886-0.357,1.754-0.675,2.6-0.883c0.834-0.248,1.633-0.43,2.373-0.576
			c0.732-0.182,1.425-0.249,2.031-0.32c0.605-0.082,1.136-0.129,1.574-0.152c0.873-0.054,1.372-0.062,1.372-0.062l0.015,0.099
			c0,0-0.488,0.083-1.342,0.228c-0.428,0.065-0.943,0.163-1.53,0.302c-0.589,0.13-1.255,0.264-1.966,0.477
			c-0.719,0.188-1.488,0.413-2.287,0.705c-0.812,0.25-1.628,0.624-2.484,0.975c-0.424,0.187-0.836,0.416-1.263,0.625
			c-0.431,0.203-0.851,0.44-1.259,0.705c-0.848,0.478-1.629,1.079-2.416,1.672c-0.734,0.654-1.493,1.289-2.104,2.045
			c-0.329,0.357-0.643,0.721-0.897,1.124c-0.261,0.396-0.559,0.764-0.78,1.168c-0.431,0.816-0.867,1.598-1.119,2.411
			c-0.335,0.782-0.483,1.572-0.653,2.292c-0.042,0.18-0.083,0.357-0.123,0.529c-0.019,0.176-0.038,0.347-0.056,0.515
			c-0.036,0.335-0.071,0.653-0.103,0.951c-0.091,0.595-0.065,1.123-0.064,1.556c0.005,0.867,0.008,1.362,0.008,1.362L86.783,205.665
			z"/>
	</g>
</g>
<path fill="none" stroke="#58595B" stroke-width="5" stroke-linecap="round" stroke-miterlimit="10" d="M181.223,110.749
	c27.305,2.101,32.557,27.306,10.502,42.01c-12.603,8.401-35.708,35.707-48.312,11.552"/>
<circle fill="none" stroke="#58595B" stroke-width="3" stroke-miterlimit="10" cx="178.072" cy="110.749" r="10.254"/>
<g>
	<path fill="none" stroke="#414042" stroke-miterlimit="10" d="M195.4,110.75c1.838,2.101,0.787,4.988-1.049,6.826"/>
	<path fill="none" stroke="#414042" stroke-miterlimit="10" d="M203.803,117.051c0.789,3.676,0.789,7.352-2.889,9.19"/>
	<path fill="none" stroke="#414042" stroke-miterlimit="10" d="M210.367,132.542c-1.576,2.625-6.303,2.888-9.189,2.625"/>
	<path fill="none" stroke="#414042" stroke-miterlimit="10" d="M205.379,146.195c-2.627,0.525-5.777,1.312-7.615-1.313"/>
	<path fill="none" stroke="#414042" stroke-miterlimit="10" d="M195.4,156.435c-3.676-1.05-5.775-2.625-7.09-6.302"/>
	<path fill="none" stroke="#414042" stroke-miterlimit="10" d="M186.475,163.262c-3.414,1.05-7.616-3.677-7.616-6.039"/>
	<path fill="none" stroke="#414042" stroke-miterlimit="10" d="M176.497,170.875c-3.939,1.575-6.826-3.15-7.615-6.563"/>
	<path fill="none" stroke="#414042" stroke-miterlimit="10" d="M164.419,176.652c-4.463,0-8.402-7.877-6.564-10.503"/>
	<path fill="none" stroke="#414042" stroke-miterlimit="10" d="M146.04,176.652c-2.887-3.151-2.1-9.716,2.887-10.24"/>
</g>
<circle opacity="0.2" fill="#F1F2F2" cx="144.707" cy="106.67" r="45.523"/>
<g>
	<path fill="#F1F2F2" d="M165.026,76.617c0,0,0.575,0.665,1.584,1.827c0.498,0.584,1.104,1.295,1.764,2.141
		c0.668,0.839,1.439,1.776,2.209,2.85c0.793,1.057,1.643,2.212,2.467,3.489c0.869,1.246,1.688,2.63,2.533,4.062
		c0.412,0.723,0.789,1.483,1.194,2.241c0.196,0.382,0.408,0.759,0.596,1.151c0.175,0.399,0.349,0.801,0.524,1.204
		c0.746,1.593,1.311,3.298,1.895,4.995c0.218,0.873,0.436,1.745,0.653,2.614c0.229,0.866,0.304,1.764,0.46,2.635
		c0.062,0.439,0.151,0.872,0.189,1.31c0.021,0.439,0.042,0.877,0.062,1.312c0.017,0.869,0.136,1.724,0.051,2.567
		c-0.048,0.841-0.094,1.669-0.14,2.479c-0.082,0.805-0.25,1.583-0.366,2.343c-0.186,1.532-0.68,2.91-1.025,4.196
		c-0.162,0.648-0.395,1.244-0.627,1.806c-0.228,0.562-0.443,1.095-0.646,1.596c-0.366,1.015-0.851,1.829-1.201,2.516
		c-0.731,1.354-1.149,2.129-1.149,2.129s0.285-0.831,0.783-2.286c0.249-0.724,0.598-1.583,0.848-2.618
		c0.139-0.511,0.287-1.055,0.443-1.627c0.161-0.57,0.344-1.165,0.438-1.809c0.214-1.28,0.567-2.638,0.657-4.115
		c0.062-0.735,0.176-1.484,0.201-2.255c0.008-0.771,0.015-1.559,0.021-2.359c0.052-0.8-0.099-1.609-0.146-2.428
		c-0.035-0.409-0.071-0.82-0.107-1.234c-0.041-0.413-0.133-0.822-0.197-1.236c-0.16-0.823-0.238-1.668-0.469-2.488
		c-0.216-0.822-0.434-1.647-0.65-2.473c-0.537-1.624-1.05-3.259-1.75-4.804c-0.618-1.574-1.387-3.065-2.088-4.524
		c-0.785-1.421-1.478-2.833-2.252-4.114c-0.739-1.299-1.467-2.515-2.15-3.633c-0.689-1.116-1.32-2.139-1.881-3.046
		c-0.564-0.907-1.059-1.698-1.465-2.35C165.485,77.367,165.026,76.617,165.026,76.617z"/>
</g>
<g>
	<g>
		<path fill="none" stroke="#AFB1B4" stroke-width="1.2786" stroke-miterlimit="10" d="M83.552,206.319"/>
	</g>
</g>
<g>
	<g>
		<path fill="none" stroke="#AFB1B4" stroke-width="1.2786" stroke-miterlimit="10" d="M150.769,114.95"/>
	</g>
</g>
<g>
	<g>
		<path fill="none" stroke="#AFB1B4" stroke-width="1.2786" stroke-miterlimit="10" d="M71.999,183.216"/>
	</g>
</g>
</svg>
