<?xml version="1.0" encoding="utf-8"?>
<!-- Generator: Adobe Illustrator 16.0.4, SVG Export Plug-In . SVG Version: 6.00 Build 0)  -->
<!DOCTYPE svg PUBLIC "-//W3C//DTD SVG 1.1//EN" "http://www.w3.org/Graphics/SVG/1.1/DTD/svg11.dtd">
<svg version="1.1" id="Layer_1" xmlns="http://www.w3.org/2000/svg" xmlns:xlink="http://www.w3.org/1999/xlink" x="0px" y="0px"
	 width="1073.222px" height="861.444px" viewBox="0 0 1073.222 861.444" enable-background="new 0 0 1073.222 861.444"
	 xml:space="preserve">
<g>
	<path fill="#58595B" d="M935.186,688.181C857.527,825.428,609.55,832.012,381.323,702.85
		C153.088,573.711,31.031,357.76,108.689,220.514c77.66-137.253,325.636-143.825,553.873-14.676
		C890.792,334.989,1012.853,550.944,935.186,688.181z"/>
	<path fill="#F1F2F2" d="M950.002,651.859c-77.663,137.255-325.636,143.812-553.867,14.683
		C167.901,537.383,45.847,321.438,123.51,184.18c77.662-137.242,325.636-143.809,553.869-14.665
		C905.604,298.653,1027.664,514.617,950.002,651.859z"/>
	<path fill="#BCBEC0" d="M482.552,549.657c110.589-67.823,118.023-256.863,16.61-422.203c-7.918-12.908-16.312-25.227-25.021-37.048
		C317.094,55.853,178.145,87.637,123.51,184.18c-43.083,76.143-24.679,176.496,39.198,272.838
		C262.759,563.012,392.818,604.687,482.552,549.657z"/>
	<g>
		<path fill="#414042" d="M578.218,445.684c-9.18,16.223-38.509,17.011-65.502,1.732c-26.989-15.283-41.423-40.815-32.247-57.051
			c9.19-16.223,38.515-17.006,65.505-1.732C572.969,403.908,587.406,429.448,578.218,445.684z"/>
		<path fill="#6D6E71" d="M578.218,445.684c0,0-0.147,0.238-0.435,0.699c-0.146,0.229-0.314,0.521-0.538,0.853
			c-0.239,0.322-0.517,0.694-0.83,1.116c-1.282,1.656-3.512,3.875-6.942,5.807c-3.432,1.902-8.046,3.416-13.488,3.982
			c-5.438,0.582-11.67,0.257-18.262-1.095c-6.594-1.348-13.553-3.714-20.467-7.132c-6.91-3.418-13.8-7.868-20.112-13.445
			c-6.266-5.586-12.047-12.324-15.887-20.329c-1.907-3.986-3.278-8.318-3.628-12.804c-0.366-4.468,0.43-9.108,2.684-13.072
			c2.22-3.945,5.804-7.036,9.818-9.016c4.026-2.009,8.445-3.064,12.845-3.481c8.84-0.83,17.594,0.657,25.607,3.153
			c8.03,2.54,15.393,6.161,21.879,10.324c6.49,4.168,12.102,8.916,16.652,13.873c4.553,4.956,8.04,10.131,10.341,15.092
			c2.316,4.957,3.393,9.693,3.528,13.615c0.109,3.935-0.646,6.988-1.406,8.94c-0.2,0.486-0.377,0.915-0.529,1.286
			c-0.169,0.362-0.333,0.658-0.454,0.9C578.346,445.435,578.218,445.684,578.218,445.684z M578.218,445.684
			c0,0,0.127-0.25,0.374-0.733c0.12-0.243,0.283-0.538,0.451-0.901c0.151-0.371,0.327-0.801,0.526-1.287
			c0.754-1.953,1.501-5.007,1.382-8.937c-0.146-3.917-1.233-8.643-3.56-13.587c-2.31-4.947-5.806-10.105-10.364-15.041
			c-4.556-4.938-10.171-9.663-16.658-13.807c-6.486-4.139-13.843-7.732-21.856-10.243c-7.998-2.469-16.727-3.925-25.507-3.077
			c-4.37,0.426-8.75,1.486-12.722,3.482c-3.968,1.973-7.465,5.003-9.655,8.908c-2.206,3.859-3.016,8.439-2.662,12.85
			c0.333,4.433,1.68,8.733,3.564,12.699c3.794,7.965,9.536,14.697,15.77,20.283c6.278,5.576,13.146,10.038,20.032,13.466
			c6.893,3.43,13.834,5.811,20.413,7.173c6.578,1.367,12.8,1.707,18.23,1.141c5.437-0.551,10.048-2.051,13.481-3.942
			c3.43-1.92,5.665-4.132,6.95-5.784c0.314-0.42,0.593-0.792,0.833-1.112c0.225-0.331,0.394-0.623,0.541-0.852
			C578.069,445.921,578.218,445.684,578.218,445.684z"/>
	</g>
	<path fill="none" stroke="#D1D3D4" stroke-width="1.0556" stroke-miterlimit="10" d="M279.774,83.848
		c0,0,55.595,384.193,682.273,541.914"/>
	<path fill="none" stroke="#D1D3D4" stroke-width="1.0556" stroke-miterlimit="10" d="M535.507,437.101
		c-290.791-69.427-390.027-283.495-390.027-283.495"/>
	<path fill="none" stroke="#D1D3D4" stroke-width="1.0556" stroke-miterlimit="10" d="M424.469,80.643
		c0,0,3.116,261.354,111.038,373.705"/>
	<path fill="none" stroke="#D1D3D4" stroke-width="1.0556" stroke-miterlimit="10" d="M548.283,111.191
		c0,0-51.839,259.795,0,331.185"/>
	<path fill="none" stroke="#D1D3D4" stroke-width="1.0556" stroke-miterlimit="10" d="M677.379,169.515
		c0,0-82.288,90.22-129.096,248.51"/>
	<g>
		<path fill="none" stroke="#D1D3D4" stroke-width="1.0556" stroke-miterlimit="10" d="M952.677,458.376
			c0,0-252.576,55.271-396.629-4.028"/>
		<path fill="none" stroke="#D1D3D4" stroke-width="1.0556" stroke-miterlimit="10" d="M875.629,331.65
			c0,0-222.771,143.35-308.176,121.265"/>
		<path fill="none" stroke="#D1D3D4" stroke-width="1.0556" stroke-miterlimit="10" d="M774.091,232.874
			c0,0-53.827,109.599-183.978,211.128"/>
	</g>
	<path fill="none" stroke="#D1D3D4" stroke-width="1.0556" stroke-miterlimit="10" d="M845.076,737.766
		c0,0-149.284,58.555-319.833-319.741"/>
	<path fill="none" stroke="#D1D3D4" stroke-width="1.0556" stroke-miterlimit="10" d="M279.774,585.994l276.273-148.893
		c-352.066,62.126-443.28-82.311-443.28-82.311"/>
	<path fill="none" stroke="#D1D3D4" stroke-width="1.0556" stroke-miterlimit="10" d="M525.243,724.856
		c0,0-12.639-168.926,11.515-287.755"/>
	<g>
		<g enable-background="new    ">
			<g>
				<path fill="#E4E4E4" d="M561.114,356.313c5.449,1.932,9.754,7.359,9.638,12.145c-0.111,4.777-4.607,7.083-10.043,5.138
					c-5.454-1.945-9.759-7.354-9.643-12.145C551.178,356.674,555.669,354.381,561.114,356.313z"/>
			</g>
			<g enable-background="new    ">
				<defs>
					<path id="SVGID_1_" enable-background="new    " d="M569.563,372.05l-38.702,49.804c-1.703,2.194-5.044,2.92-8.854,1.544
						c-5.449-1.919-9.752-7.354-9.641-12.131c0.038-1.434,0.463-2.64,1.197-3.579l38.695-49.83
						c-0.726,0.948-1.152,2.168-1.192,3.593c-0.116,4.79,4.188,10.199,9.643,12.145C564.506,374.958,567.858,374.232,569.563,372.05
						z"/>
				</defs>
				<clipPath id="SVGID_2_">
					<use xlink:href="#SVGID_1_"  overflow="visible"/>
				</clipPath>
				<g clip-path="url(#SVGID_2_)" enable-background="new    ">
					<path fill="#848484" d="M569.563,372.05l-38.702,49.804c-0.626,0.797-1.474,1.406-2.478,1.78l38.7-49.816
						C568.086,373.444,568.932,372.852,569.563,372.05"/>
					<path fill="#888888" d="M567.084,373.818l-38.7,49.816c-1.296,0.489-2.862,0.601-4.581,0.267l38.7-49.807
						C564.217,374.418,565.788,374.317,567.084,373.818"/>
					<path fill="#8C8C8C" d="M562.503,374.094l-38.7,49.807c-0.578-0.115-1.187-0.275-1.796-0.503
						c-1.552-0.548-3.012-1.371-4.296-2.396l38.693-49.815c1.291,1.024,2.751,1.86,4.305,2.408
						C561.318,373.818,561.915,373.969,562.503,374.094"/>
					<path fill="#888888" d="M556.404,371.187l-38.693,49.815c-1.529-1.206-2.812-2.68-3.747-4.251l38.7-49.816
						C553.59,368.506,554.881,369.981,556.404,371.187"/>
					<path fill="#848484" d="M552.664,366.935l-38.7,49.816c-1.048-1.78-1.64-3.673-1.598-5.484c0.038-1.434,0.463-2.64,1.197-3.579
						l38.695-49.83c-0.726,0.948-1.152,2.168-1.192,3.593C551.026,363.272,551.613,365.168,552.664,366.935"/>
				</g>
			</g>
		</g>
	</g>
	<g>
		<g enable-background="new    ">
			<g>
				<path fill="#333333" d="M542.336,267.401c11.143,0.891,27.228,7.132,44.127,17.936c28.821,18.427,49.122,42.992,45.373,54.963
					c-1.54,4.916-6.927,6.924-14.74,6.287c-11.143-0.896-27.231-7.146-44.148-17.981c-28.769-18.382-49.077-42.942-45.354-54.914
					C529.125,268.772,534.519,266.768,542.336,267.401z"/>
			</g>
			<g enable-background="new    ">
				<defs>
					<path id="SVGID_3_" enable-background="new    " d="M629.739,343.67l-18.203,17.255c-2.573,2.431-6.963,3.37-12.644,2.921
						c-11.147-0.9-27.228-7.159-44.153-17.981c-28.769-18.386-49.073-42.956-45.354-54.932c0.421-1.335,1.124-2.466,2.09-3.379
						l18.206-17.247c-0.966,0.908-1.672,2.035-2.088,3.384c-3.724,11.972,16.585,36.532,45.354,54.914
						c16.917,10.835,33.006,17.086,44.148,17.981C622.772,347.049,627.171,346.114,629.739,343.67z"/>
				</defs>
				<clipPath id="SVGID_4_">
					<use xlink:href="#SVGID_3_"  overflow="visible"/>
				</clipPath>
				<g clip-path="url(#SVGID_4_)" enable-background="new    ">
					<path fill="#333333" d="M629.739,343.67l-18.203,17.255c-2.573,2.431-6.963,3.37-12.644,2.921
						c-0.08-0.019-0.143-0.027-0.223-0.027l18.208-17.246c0.071,0.014,0.151,0.014,0.218,0.014
						C622.772,347.049,627.171,346.114,629.739,343.67"/>
					<path fill="#414042" stroke="#58595B" stroke-width="1.0556" stroke-miterlimit="10" d="M616.878,346.573l-18.208,17.246
						c-10.15-0.873-24.348-6.148-39.515-15.225l18.208-17.247C592.53,340.424,606.728,345.7,616.878,346.573"/>
					<path fill="#414042" d="M577.363,331.347l-18.208,17.247c-1.47-0.887-2.938-1.785-4.416-2.729
						c-16.544-10.577-30.289-23.194-38.275-34.284l18.206-17.246c7.986,11.104,21.734,23.706,38.277,34.271
						C574.425,329.553,575.895,330.475,577.363,331.347"/>
					<path fill="#333333" d="M534.67,294.334l-18.206,17.246c-3.724-5.173-6.192-10.012-7.116-14.148l18.208-17.232
						C528.479,284.335,530.948,289.174,534.67,294.334"/>
					<path fill="#333333" d="M527.556,280.2l-18.208,17.232c-0.541-2.421-0.545-4.615,0.038-6.499
						c0.421-1.335,1.124-2.466,2.09-3.379l18.206-17.247c-0.966,0.908-1.672,2.035-2.088,3.384
						C527.006,275.565,527.015,277.756,527.556,280.2"/>
				</g>
			</g>
		</g>
	</g>
	<g>
		<g enable-background="new    ">
			<g>
				<path fill="#B3B3B3" d="M611.144,249.473c4.069,0.423,8.183,5.182,9.176,10.622c0.975,5.44-1.527,9.478-5.605,9.056
					c-4.064-0.428-8.164-5.174-9.152-10.613C604.573,253.115,607.075,249.032,611.144,249.473z"/>
			</g>
			<g enable-background="new    ">
				<defs>
					<path id="SVGID_5_" enable-background="new    " d="M618.971,267.432L417.439,513.258c-1.016,1.242-2.493,1.893-4.257,1.719
						c-4.07-0.436-8.166-5.186-9.152-10.613c-0.562-3.09,0.004-5.733,1.34-7.367c67.181-81.937,134.366-163.883,201.531-245.828
						c-1.331,1.63-1.901,4.287-1.34,7.369c0.988,5.439,5.088,10.186,9.152,10.613C616.486,269.336,617.955,268.674,618.971,267.432z
						"/>
				</defs>
				<clipPath id="SVGID_6_">
					<use xlink:href="#SVGID_5_"  overflow="visible"/>
				</clipPath>
				<g clip-path="url(#SVGID_6_)" enable-background="new    ">
					<path fill="#828282" d="M618.971,267.432L417.439,513.258c-1.016,1.242-2.493,1.893-4.257,1.719
						c-0.812-0.102-1.615-0.352-2.401-0.748l201.538-245.818c0.779,0.388,1.589,0.646,2.395,0.74
						C616.486,269.336,617.955,268.674,618.971,267.432"/>
					<path fill="#848484" d="M612.319,268.411L410.781,514.229c-2.215-1.107-4.238-3.356-5.529-6.086l201.529-245.831
						C608.081,265.055,610.103,267.29,612.319,268.411"/>
					<path fill="#828282" d="M606.781,262.312L405.252,508.143c-0.561-1.175-0.986-2.466-1.222-3.779
						c-0.562-3.09,0.004-5.733,1.34-7.367l201.531-245.828c-1.331,1.63-1.901,4.287-1.34,7.369
						C605.802,259.86,606.22,261.141,606.781,262.312"/>
				</g>
			</g>
		</g>
	</g>
	<g>
		<g enable-background="new    ">
			<g>
				<path fill="#A3A3A3" d="M612.756,239.897c4.398,0.908,6.646,5.748,5.021,10.796c-1.611,5.062-6.486,8.432-10.876,7.519
					c-4.395-0.908-6.638-5.76-5.018-10.809C603.491,242.336,608.361,238.985,612.756,239.897z"/>
			</g>
			<g enable-background="new    ">
				<defs>
					<path id="SVGID_7_" enable-background="new    " d="M617.821,244.478l100.661,288.783c0.637,1.808,0.664,3.989-0.04,6.21
						c-1.62,5.045-6.49,8.428-10.885,7.52c-2.462-0.512-4.242-2.258-5.062-4.59L601.84,253.635c0.818,2.32,2.6,4.064,5.062,4.576
						c4.39,0.913,9.265-2.457,10.876-7.519C618.489,248.471,618.463,246.307,617.821,244.478z"/>
				</defs>
				<clipPath id="SVGID_8_">
					<use xlink:href="#SVGID_7_"  overflow="visible"/>
				</clipPath>
				<g clip-path="url(#SVGID_8_)" enable-background="new    ">
					<path fill="#8E8E8E" d="M617.821,244.478l100.661,288.783c0.076,0.235,0.156,0.485,0.219,0.722L618.044,245.217
						C617.982,244.967,617.901,244.718,617.821,244.478"/>
					<path fill="#909090" d="M618.044,245.217l100.657,288.766c0.071,0.311,0.133,0.623,0.178,0.947L618.223,246.165
						C618.178,245.84,618.115,245.529,618.044,245.217"/>
					<path fill="#929292" d="M618.223,246.165L718.879,534.93c0.054,0.375,0.08,0.762,0.089,1.162L618.303,247.314
						C618.303,246.926,618.275,246.54,618.223,246.165"/>
					<path fill="#949494" d="M618.303,247.314l100.665,288.778c0.005,0.557-0.035,1.131-0.134,1.719L618.178,249.045
						C618.275,248.462,618.312,247.875,618.303,247.314"/>
					<path fill="#969696" d="M618.178,249.045l100.656,288.766c-0.084,0.547-0.213,1.113-0.392,1.66
						c-0.178,0.548-0.4,1.091-0.649,1.594L617.136,252.318c0.25-0.53,0.473-1.063,0.642-1.625
						C617.964,250.145,618.089,249.598,618.178,249.045"/>
					<path fill="#949494" d="M617.136,252.318l100.657,288.747c-0.271,0.561-0.584,1.096-0.927,1.572L616.21,253.872
						C616.553,253.373,616.864,252.866,617.136,252.318"/>
					<path fill="#929292" d="M616.21,253.872l100.656,288.766c-0.235,0.347-0.498,0.672-0.774,0.996L615.444,254.856
						C615.712,254.53,615.965,254.214,616.21,253.872"/>
					<path fill="#909090" d="M615.444,254.856l100.647,288.777c-0.231,0.25-0.472,0.508-0.721,0.748L614.714,255.608
						C614.964,255.372,615.213,255.104,615.444,254.856"/>
					<path fill="#8E8E8E" d="M614.714,255.608l100.657,288.773c-0.231,0.228-0.481,0.428-0.73,0.637L613.984,256.252
						C614.233,256.04,614.474,255.831,614.714,255.608"/>
					<path fill="#8C8C8C" d="M613.984,256.252l100.656,288.766c-0.24,0.188-0.489,0.375-0.739,0.539l-100.656-288.77
						C613.494,256.627,613.744,256.431,613.984,256.252"/>
					<path fill="#8A8A8A" d="M613.245,256.788l100.656,288.77c-0.258,0.174-0.516,0.325-0.783,0.473L612.462,257.254
						C612.725,257.117,612.987,256.952,613.245,256.788"/>
					<path fill="#888888" d="M612.462,257.254L713.118,546.03c-0.28,0.15-0.552,0.303-0.842,0.427L611.62,257.678
						C611.909,257.553,612.19,257.419,612.462,257.254"/>
					<path fill="#868686" d="M611.62,257.678l100.656,288.778c-0.307,0.124-0.627,0.231-0.948,0.334l-100.66-288.778
						C610.992,257.927,611.309,257.797,611.62,257.678"/>
					<path fill="#848484" d="M610.668,258.012l100.66,288.778c-0.383,0.111-0.778,0.2-1.171,0.258L609.501,258.274
						C609.893,258.225,610.289,258.127,610.668,258.012"/>
					<path fill="#828282" d="M609.501,258.274l100.656,288.774c-0.867,0.125-1.749,0.125-2.6-0.058
						c-2.462-0.512-4.242-2.258-5.062-4.59L601.84,253.635c0.818,2.32,2.6,4.064,5.062,4.576
						C607.752,258.395,608.633,258.395,609.501,258.274"/>
				</g>
			</g>
		</g>
	</g>
	<g>
		<g enable-background="new    ">
			<g>
				<path fill="#AFAFAF" d="M616.161,239.749c3.904,0.168,7.109,5.344,7.189,11.519c0.08,6.184-3.009,11.045-6.909,10.872
					c-3.882-0.174-7.104-5.32-7.176-11.496C609.189,244.459,612.274,239.567,616.161,239.749z"/>
			</g>
			<g enable-background="new    ">
				<defs>
					<path id="SVGID_9_" enable-background="new    " d="M617.27,262.089l-239.826,33.669c-0.27,0.023-0.547,0.05-0.828,0.023
						c-3.886-0.156-7.096-5.307-7.179-11.495c-0.073-5.733,2.589-10.347,6.082-10.845c79.944-11.215,159.886-22.434,239.828-33.645
						c-3.495,0.469-6.152,5.112-6.081,10.846c0.071,6.176,3.294,11.322,7.176,11.496
						C616.722,262.139,616.993,262.139,617.27,262.089z"/>
				</defs>
				<clipPath id="SVGID_10_">
					<use xlink:href="#SVGID_9_"  overflow="visible"/>
				</clipPath>
				<g clip-path="url(#SVGID_10_)" enable-background="new    ">
					<path fill="#828282" d="M617.27,262.089l-239.826,33.669c-0.27,0.023-0.547,0.05-0.828,0.023
						c-3.873-0.156-7.069-5.275-7.179-11.41l239.829-33.652c0.106,6.135,3.308,11.246,7.176,11.42
						C616.722,262.139,616.993,262.139,617.27,262.089"/>
					<path fill="#848484" d="M609.266,250.719l-239.829,33.652c0-0.023,0-0.059,0-0.085c-0.018-1.385,0.125-2.72,0.408-3.936
						l239.821-33.647c-0.276,1.221-0.419,2.543-0.4,3.939C609.266,250.67,609.266,250.693,609.266,250.719"/>
					<path fill="#868686" d="M609.666,246.704l-239.821,33.647c0.858-3.798,3.029-6.54,5.674-6.909l239.828-33.645
						C612.697,240.167,610.529,242.902,609.666,246.704"/>
				</g>
			</g>
		</g>
	</g>
</g>
</svg>
