<?xml version="1.0" encoding="utf-8"?>
<!-- Generator: Adobe Illustrator 19.0.0, SVG Export Plug-In . SVG Version: 6.00 Build 0)  -->
<svg version="1.1" id="Layer_1" xmlns="http://www.w3.org/2000/svg" xmlns:xlink="http://www.w3.org/1999/xlink" x="0px" y="0px"
	 viewBox="0 0 612 140.2" style="enable-background:new 0 0 612 140.2;" xml:space="preserve">
<style type="text/css">
	.st0{fill:#FFFFFF;}
</style>
<g id="XMLID_2_">
	<path id="XMLID_3_" class="st0" d="M36.7,70.3v-5.1c0-2.4-0.4-3.9-1.1-4.8c-0.7-0.8-2.4-1.2-4.8-1.2c-2,0-3.8,0.4-5.3,1.2
		c-1.5,0.8-2.5,1.8-3,3.1c0.2-0.1,0.5-0.1,0.9-0.1c1.1,0,2,0.4,2.7,1.3s1.1,1.9,1.1,3c0,1.3-0.4,2.3-1.3,3.2
		c-0.9,0.8-1.9,1.2-3.1,1.2c-0.8,0-1.5-0.2-2-0.6c-1.7-1.1-2.6-2.5-2.6-4.2c0-0.8,0.2-1.8,0.5-2.8c0.8-2.3,2.9-4,6.2-5
		c2.3-0.8,4.7-1.1,7.1-1.1c4.3,0,7.6,0.8,9.9,2.5c2,1.5,3,3.3,3,5.5v19.4c0,3.5,0.1,5.7,0.3,6.5c0.4,2,1.5,3,3.2,3
		c1.5,0,2.6-0.8,3.1-2.4c0.5-1.6,0.8-3.8,0.8-6.8c0-0.8,0-1.6,0-2.4c0-0.8,0-1.7,0-2.5v-0.8H53V84c0,1.2,0,2.4,0.1,3.5
		c0,3.4-0.4,5.7-1.2,6.9c-1.1,1.5-3.2,2.2-6.5,2.2c-2.5,0-4.4-0.4-5.7-1.3c-1.5-1-2.4-2.8-2.9-5.3c-1.2,2.8-3.1,4.8-5.5,5.8
		c-1.5,0.6-3.4,0.9-5.9,0.9s-4.6-0.6-6.4-1.8c-2.5-1.6-3.8-4-3.8-7.2c0-3.2,1.2-5.8,3.7-8c2.5-2.1,5.4-3.3,8.9-3.6
		c3.5-0.3,5.9-0.8,7.1-1.4C36.1,73.9,36.7,72.5,36.7,70.3z M36.4,86.2V74.4c-0.7,0.9-1.7,1.5-3.1,1.7c-1.4,0.2-2.7,0.4-4,0.6
		c-1.7,0.4-3.1,1.4-4,2.8c-1.2,1.8-1.8,4.2-1.8,7.4c0,3.4,0.3,5.7,1,6.9c0.7,1.2,1.7,1.8,3.2,1.8c2.2,0,4.2-0.9,6-2.8
		C35.5,91.1,36.4,88.8,36.4,86.2z"/>
	<path id="XMLID_6_" class="st0" d="M96.7,61c2.3-1.7,3.5-2.6,3.6-2.7v13.2l-0.7-0.2c-0.8-3.5-2.3-6.4-4.4-8.6
		c-2.3-2.4-4.8-3.6-7.6-3.6c-2.1,0-3.8,0.4-5.2,1.2c-1.8,1.1-2.7,3-2.7,5.5c0,2.1,1,3.8,3,4.9c1.4,0.8,4.2,1.7,8.4,2.7
		c4.2,1,7.2,2.2,8.9,3.5c2.4,1.9,3.6,4.9,3.6,9c0,3.8-1.3,6.6-3.9,8.4c-2.1,1.5-4.6,2.2-7.7,2.2c-2.6,0-4.4-0.2-5.5-0.5
		c-1.6-0.5-3.4-1.8-5.4-3.8c-2.3,2.8-3.6,4.2-3.7,4.3V81H78c1,3.6,1.8,6.2,2.5,7.6c0.9,1.9,1.8,3.4,2.8,4.3c1.4,1.3,2.6,2.1,3.8,2.4
		c1.2,0.3,3,0.5,5.4,0.5c1.8,0,3.3-0.5,4.5-1.4c1.4-1.1,2.1-2.7,2.1-4.8c0-2.6-0.9-4.6-2.8-5.9c-1.5-1-4.1-1.9-7.8-2.6
		c-3.7-0.8-6.6-2-8.7-3.7c-2.5-2.1-3.7-4.8-3.7-8.2c0-3,1-5.6,3.1-7.8c2.1-2.1,4.6-3.2,7.6-3.2c2.3,0,4.3,0.4,6,1.1
		C95.1,60.4,96.4,60.9,96.7,61z"/>
	<path id="XMLID_8_" class="st0" d="M121.4,70.8c0.4-3,1.2-5.7,2.5-7.9c1.8-3.1,4.2-4.7,7.2-4.7c4.2,0,7.7,1.6,10.5,4.8
		c3,3.5,4.5,8.4,4.5,14.5c0,4.2-1.4,8.3-4.1,12.1c-3.2,4.6-7.3,6.9-12.2,6.9c-2.6,0-4.6-1.4-6.2-4.1c-1.1-1.9-1.8-4.2-2.1-6.7V110
		c0,1.2,0.1,1.9,0.3,2.3c0.1,0.2,0.4,0.4,0.8,0.5c1.2,0.4,3.8,0.6,7.7,0.6v0.8h-25.7v-0.8c1.7,0,3.2-0.1,4.6-0.2
		c1.4-0.1,2.6-0.4,3.6-0.7c0.4-0.3,0.5-1.1,0.5-2.6V64.3c0-1.2-0.2-2-0.5-2.5c-0.4-0.5-0.7-0.8-1.1-0.9c-1.1-0.3-3.4-0.4-7-0.4v-0.8
		l16.9-1.5V70.8z M121.9,77.7c0,5.9,0.7,10.4,2,13.4c1.3,3.1,3.2,4.6,5.5,4.6c2.8,0,4.7-1.3,5.8-3.9c1.1-2.6,1.6-7.4,1.6-14.3
		c0-6.2-0.3-10.6-1-13.1c-0.9-3.6-2.9-5.4-5.8-5.4c-2,0-3.8,1.5-5.3,4.5C122.8,67.2,121.9,71.9,121.9,77.7z"/>
	<path id="XMLID_11_" class="st0" d="M171.9,70.3v-5.1c0-2.4-0.4-3.9-1.1-4.8c-0.7-0.8-2.4-1.2-4.8-1.2c-2,0-3.8,0.4-5.3,1.2
		c-1.5,0.8-2.5,1.8-3,3.1c0.2-0.1,0.5-0.1,0.9-0.1c1.1,0,2,0.4,2.7,1.3s1.1,1.9,1.1,3c0,1.3-0.4,2.3-1.3,3.2
		c-0.9,0.8-1.9,1.2-3.1,1.2c-0.8,0-1.5-0.2-2-0.6c-1.7-1.1-2.6-2.5-2.6-4.2c0-0.8,0.2-1.8,0.5-2.8c0.8-2.3,2.9-4,6.2-5
		c2.3-0.8,4.7-1.1,7.1-1.1c4.3,0,7.6,0.8,9.9,2.5c2,1.5,3,3.3,3,5.5v19.4c0,3.5,0.1,5.7,0.3,6.5c0.4,2,1.5,3,3.2,3
		c1.5,0,2.6-0.8,3.1-2.4c0.5-1.6,0.8-3.8,0.8-6.8c0-0.8,0-1.6,0-2.4c0-0.8,0-1.7,0-2.5v-0.8h1.1V84c0,1.2,0,2.4,0.1,3.5
		c0,3.4-0.4,5.7-1.2,6.9c-1.1,1.5-3.2,2.2-6.5,2.2c-2.5,0-4.4-0.4-5.7-1.3c-1.5-1-2.4-2.8-2.9-5.3c-1.2,2.8-3.1,4.8-5.5,5.8
		c-1.5,0.6-3.4,0.9-5.9,0.9s-4.6-0.6-6.4-1.8c-2.5-1.6-3.8-4-3.8-7.2c0-3.2,1.2-5.8,3.7-8c2.5-2.1,5.4-3.3,8.9-3.6
		c3.5-0.3,5.9-0.8,7.1-1.4C171.3,73.9,171.9,72.5,171.9,70.3z M171.6,86.2V74.4c-0.7,0.9-1.7,1.5-3.1,1.7c-1.4,0.2-2.7,0.4-4,0.6
		c-1.7,0.4-3.1,1.4-4,2.8c-1.2,1.8-1.8,4.2-1.8,7.4c0,3.4,0.3,5.7,1,6.9c0.7,1.2,1.7,1.8,3.2,1.8c2.2,0,4.2-0.9,6-2.8
		C170.7,91.1,171.6,88.8,171.6,86.2z"/>
	<path id="XMLID_14_" class="st0" d="M215.7,64.9c-0.2-1.9-1.1-3.4-2.5-4.4c-1.4-1-3.2-1.5-5.3-1.5c-3.3,0-5.5,1.5-6.8,4.4
		c-1.3,2.9-1.9,7.6-1.9,13.9c0,5.9,0.8,10.3,2.5,13.3c1.6,3,3.9,4.5,6.6,4.5c3.3,0,6.1-1.1,8.4-3.2c2.9-2.7,4.3-6.8,4.3-12.1h0.7
		c0,5.2-1.4,9.2-4,12.2c-2.7,3-6.4,4.5-11.1,4.5c-3.8,0-7.4-1.5-10.6-4.6c-3.9-3.6-5.9-8.3-5.9-13.9c0-6,2-11,6-14.9
		c3.5-3.3,7.1-5,10.8-5c2.5,0,4.9,0.4,7,1.3c3.3,1.4,5.3,3.4,6.1,6.2c0.3,1.1,0.4,2,0.4,2.7c0,1.9-0.9,3.3-2.7,4.3
		c-0.7,0.4-1.4,0.6-2.3,0.6c-1.1,0-2-0.4-2.9-1.2c-0.9-0.8-1.3-1.8-1.3-3.2c0-1.2,0.4-2.2,1.2-3C213.3,65.3,214.3,64.9,215.7,64.9z"
		/>
	<path id="XMLID_16_" class="st0" d="M234.1,77.7c0,6.3,0.7,10.9,2.2,13.7c1.5,2.8,3.8,4.2,6.8,4.2c3.2,0,6.1-1.1,8.5-3.3
		c3-2.7,4.5-6.3,4.5-10.8h0.7c0,4.4-1.4,8-4.2,10.8c-2.8,2.8-6.6,4.2-11.3,4.2c-3.9,0-7.5-1.5-10.7-4.5c-3.8-3.5-5.7-8.1-5.7-13.8
		c0-6.2,1.9-11.2,5.6-15c3.3-3.3,7-5,11.1-5c3.8,0,7,1.1,9.5,3.3c3.7,3.3,5.5,8.7,5.5,16.1H234.1z M249.2,76.6c0-5.7-0.5-10-1.5-13
		c-1-3-2.7-4.5-4.9-4.5c-3.2,0-5.4,1.4-6.7,4.3c-1.3,2.8-2,7.3-2,13.2H249.2z"/>
	<path id="XMLID_19_" class="st0" d="M305.7,77.1v4c0,1.4,0,2.6,0.1,3.9c0,4.1-0.5,6.9-1.4,8.4c-1.3,2.1-3.8,3.2-7.5,3.2
		c-3.5,0-6.1-0.8-7.7-2.6c-1.6-1.7-2.5-4.1-2.5-7.3v-25h-7V61c4.8-1.2,8.4-4,10.9-8.4c2-3.5,2.9-7.5,2.9-11.9h1.5v18.6h10.1v2.6H295
		v23.9c0,3.2,0.1,5.2,0.3,6.1c0.6,2.2,1.9,3.3,3.9,3.3c2.4,0,3.9-1.3,4.7-3.9c0.5-1.8,0.8-5.1,0.8-10v-4.2H305.7z"/>
	<path id="XMLID_21_" class="st0" d="M344.1,77.4c0,5.7-2,10.4-5.9,14.2c-3.6,3.4-7.6,5.1-12.1,5.1c-4.6,0-8.6-1.6-12-4.8
		c-4-3.7-6-8.5-6-14.5c0-5.7,2-10.4,5.9-14.1c3.6-3.3,7.6-5,12.1-5c4.5,0,8.5,1.6,12,4.8C342.1,66.6,344.1,71.4,344.1,77.4z
		 M334.9,77.4c0-6.5-0.6-11.1-1.7-13.7c-1.3-3-3.7-4.6-7.1-4.6c-3.2,0-5.4,1.5-6.8,4.4c-1.3,2.9-2,7.6-2,13.9
		c0,6.5,0.6,11.1,1.8,14.1c1.2,2.9,3.5,4.4,7,4.4c3.2,0,5.4-1.5,6.8-4.5S334.9,83.7,334.9,77.4z"/>
	<path id="XMLID_24_" class="st0" d="M393.2,83.6c0,2.9-0.7,5.6-2.1,8.1c-1.8,3.3-4.3,4.9-7.6,4.9c-4.2,0-7.7-1.6-10.5-4.8
		c-3-3.5-4.5-8.4-4.5-14.5c0-4.2,1.4-8.3,4.1-12.1c3.2-4.6,7.3-6.9,12.2-6.9c2.6,0,4.7,1.5,6.2,4.4c1.1,2,1.7,4.3,2,6.8V44.4
		c0-1.2-0.2-2-0.5-2.5c-0.4-0.5-0.9-0.8-1.5-0.9c-1.5-0.3-4.8-0.4-9.9-0.4v-0.8l20.2-1.5v52.4c0,1.2,0.1,1.9,0.3,2.3
		c0.1,0.2,0.4,0.4,0.8,0.5c1.2,0.4,3.6,0.6,7.2,0.6V95l-16.5,1.7V83.6z M392.7,77.2c0-5.9-0.7-10.4-2-13.4c-1.4-3.1-3.2-4.6-5.5-4.6
		c-2.8,0-4.8,1.3-5.9,3.9c-1.1,2.6-1.6,7.4-1.6,14.3c0,6.2,0.3,10.6,1,13.1c0.9,3.6,2.9,5.4,5.8,5.4c2,0,3.8-1.5,5.4-4.5
		C391.8,87.7,392.7,83,392.7,77.2z"/>
	<path id="XMLID_27_" class="st0" d="M420.1,64.1c0-1.2-0.1-1.9-0.4-2.2c-0.4-0.6-0.8-0.9-1.1-1.1c-1.1-0.3-3.5-0.4-7.2-0.4v-0.8
		l17-1.3v11.2c0.2-2.4,1.1-4.7,2.5-6.8c1.9-2.9,4.4-4.4,7.3-4.4c1.1,0,2.3,0.4,3.6,1.1c1.3,0.7,2.2,1.7,2.6,2.8
		c0.4,1.1,0.7,2.1,0.7,3c0,2.3-1,4-2.9,4.8c-0.5,0.2-1.1,0.4-1.9,0.4c-1.2,0-2.2-0.4-3-1.2c-0.8-0.8-1.2-2.1-1.2-3.7
		c0-1.1,0.4-2.1,1.2-3.2c0.8-1.1,1.7-1.5,2.8-1.2c-0.4-1.2-1.4-1.8-3.2-1.8c-1.7,0-3.4,1.2-5.1,3.7c-2.2,3.2-3.3,7.3-3.3,12.3v16.4
		c0,1.2,0.1,1.9,0.3,2.3c0.1,0.2,0.4,0.4,0.8,0.5c1.2,0.4,3.8,0.6,7.7,0.6v0.8h-25.7V95c1.7,0,3.2-0.1,4.6-0.2
		c1.4-0.1,2.6-0.4,3.6-0.7c0.4-0.3,0.5-1.2,0.5-2.6V64.1z"/>
	<path id="XMLID_29_" class="st0" d="M455.5,77.7c0,6.3,0.7,10.9,2.2,13.7c1.5,2.8,3.8,4.2,6.8,4.2c3.2,0,6.1-1.1,8.5-3.3
		c3-2.7,4.5-6.3,4.5-10.8h0.7c0,4.4-1.4,8-4.2,10.8c-2.8,2.8-6.6,4.2-11.3,4.2c-3.9,0-7.5-1.5-10.7-4.5c-3.8-3.5-5.7-8.1-5.7-13.8
		c0-6.2,1.9-11.2,5.6-15c3.3-3.3,7-5,11.1-5c3.8,0,7,1.1,9.5,3.3c3.7,3.3,5.5,8.7,5.5,16.1H455.5z M470.6,76.6c0-5.7-0.5-10-1.5-13
		c-1-3-2.7-4.5-4.9-4.5c-3.2,0-5.4,1.4-6.7,4.3c-1.3,2.8-2,7.3-2,13.2H470.6z"/>
	<path id="XMLID_32_" class="st0" d="M504,70.3v-5.1c0-2.4-0.4-3.9-1.1-4.8c-0.7-0.8-2.4-1.2-4.8-1.2c-2,0-3.8,0.4-5.3,1.2
		c-1.5,0.8-2.5,1.8-3,3.1c0.2-0.1,0.5-0.1,0.9-0.1c1.1,0,2,0.4,2.7,1.3s1.1,1.9,1.1,3c0,1.3-0.4,2.3-1.3,3.2
		c-0.9,0.8-1.9,1.2-3.1,1.2c-0.8,0-1.5-0.2-2-0.6c-1.7-1.1-2.6-2.5-2.6-4.2c0-0.8,0.2-1.8,0.5-2.8c0.8-2.3,2.9-4,6.2-5
		c2.3-0.8,4.7-1.1,7.1-1.1c4.3,0,7.6,0.8,9.9,2.5c2,1.5,3,3.3,3,5.5v19.4c0,3.5,0.1,5.7,0.3,6.5c0.4,2,1.5,3,3.2,3
		c1.5,0,2.6-0.8,3.1-2.4c0.5-1.6,0.8-3.8,0.8-6.8c0-0.8,0-1.6,0-2.4c0-0.8,0-1.7,0-2.5v-0.8h1.1V84c0,1.2,0,2.4,0.1,3.5
		c0,3.4-0.4,5.7-1.2,6.9c-1.1,1.5-3.2,2.2-6.5,2.2c-2.5,0-4.4-0.4-5.7-1.3c-1.5-1-2.4-2.8-2.9-5.3c-1.2,2.8-3.1,4.8-5.5,5.8
		c-1.5,0.6-3.4,0.9-5.9,0.9s-4.6-0.6-6.4-1.8c-2.5-1.6-3.8-4-3.8-7.2c0-3.2,1.2-5.8,3.7-8c2.5-2.1,5.4-3.3,8.9-3.6
		c3.5-0.3,5.9-0.8,7.1-1.4C503.4,73.9,504,72.5,504,70.3z M503.7,86.2V74.4c-0.7,0.9-1.7,1.5-3.1,1.7c-1.4,0.2-2.7,0.4-4,0.6
		c-1.7,0.4-3.1,1.4-4,2.8c-1.2,1.8-1.8,4.2-1.8,7.4c0,3.4,0.3,5.7,1,6.9c0.7,1.2,1.7,1.8,3.2,1.8c2.2,0,4.2-0.9,6-2.8
		C502.8,91.1,503.7,88.8,503.7,86.2z"/>
	<path id="XMLID_35_" class="st0" d="M559.3,69c0.5-2.7,1.1-4.8,2-6.4c1.5-2.5,3.5-3.9,6-4.2c0.4,0,0.9,0,1.4-0.1
		c0.5-0.1,0.9-0.1,1.1-0.1c3.6,0,6.5,1.1,8.7,3.4c1.8,1.9,2.7,4.1,2.7,6.7v23.4c0,1.1,0.1,1.9,0.3,2.2c0.1,0.2,0.4,0.4,0.8,0.6
		c0.4,0.2,1.2,0.3,2.4,0.4c1.1,0.1,2.1,0.2,2.9,0.2v0.8h-20.9V95c1.4,0,2.5,0,3.3-0.1c0.8-0.1,1.6-0.4,2.5-0.8
		c0.4-0.3,0.5-1.1,0.5-2.5V69.2c0-2.8-0.2-4.9-0.7-6.5c-0.8-2.4-2.2-3.6-4.2-3.6c-2.1,0-3.8,1-5.1,2.9c-1.5,2.2-2.7,6.1-3.5,11.9
		v17.7c0,1.2,0.1,1.9,0.3,2.3c0.1,0.2,0.4,0.3,0.8,0.5c0.4,0.1,1.2,0.3,2.2,0.4c1.1,0.1,2.1,0.2,3,0.2v0.8h-20.9V95
		c2.2,0,4-0.2,5.2-0.6l0.6-0.3c0.4-0.3,0.5-1.1,0.5-2.6V69.2c0-2.8-0.2-5-0.7-6.5c-0.8-2.4-2.2-3.6-4.2-3.6c-2.6,0-4.7,1.7-6.2,5
		c-1,2.4-1.8,5.7-2.4,10.1v17.3c0,1.2,0.1,1.9,0.3,2.3c0.1,0.2,0.4,0.4,0.8,0.5c0.4,0.2,1.2,0.3,2.4,0.4c1.1,0.1,2.1,0.2,2.9,0.2
		v0.8h-22.3V95c1.2,0,2.5-0.1,3.7-0.2c1.3-0.1,2.4-0.4,3.4-0.7c0.4-0.3,0.5-1.1,0.5-2.6V64.9c0-0.5,0-1.1,0-1.6
		c0-0.5-0.2-0.9-0.4-1.2c-0.4-0.6-0.8-0.9-1.1-1.1c-0.9-0.3-2.9-0.4-6.1-0.4v-0.8l15.8-1.5v11.2c0.4-2.8,1-5,1.9-6.7
		c1.4-2.7,3.4-4.2,6-4.5c0.6-0.1,1.1-0.1,1.5-0.1c0.4,0,0.8,0,1,0c3.8,0,6.6,1.1,8.6,3.2C558.4,63.3,559.3,65.8,559.3,69z"/>
	<path id="XMLID_37_" class="st0" d="M594,85.9c1.5,0,2.8,0.5,3.9,1.5c1,1,1.6,2.3,1.6,3.8c0,1.5-0.5,2.8-1.6,3.8
		c-1,1-2.3,1.5-3.9,1.5c-1.5,0-2.8-0.5-3.9-1.5c-1-1-1.6-2.3-1.6-3.8c0-1.5,0.5-2.8,1.6-3.8C591.2,86.4,592.5,85.9,594,85.9z"/>
</g>
</svg>
